<mxfile host="app.diagrams.net" agent="Mozilla/5.0 (Windows NT 10.0; Win64; x64) AppleWebKit/537.36 (KHTML, like Gecko) Chrome/129.0.0.0 Safari/537.36" version="24.7.17">
  <diagram name="Page-1" id="b392NZ7xWNutharsrv_u">
    <mxGraphModel dx="4068" dy="1548" grid="0" gridSize="10" guides="1" tooltips="1" connect="1" arrows="1" fold="1" page="0" pageScale="1" pageWidth="850" pageHeight="1100" math="0" shadow="0">
      <root>
        <mxCell id="0" />
        <mxCell id="1" parent="0" />
        <mxCell id="jf5I7HkN9PbyXn5ZmQ9L-272" value="" style="whiteSpace=wrap;html=1;aspect=fixed;" vertex="1" parent="1">
          <mxGeometry x="-813" y="1490" width="798" height="798" as="geometry" />
        </mxCell>
        <mxCell id="jf5I7HkN9PbyXn5ZmQ9L-95" style="edgeStyle=orthogonalEdgeStyle;rounded=0;orthogonalLoop=1;jettySize=auto;html=1;entryX=0;entryY=0.75;entryDx=0;entryDy=0;fillColor=#b1ddf0;strokeColor=#10739e;exitX=1;exitY=0.75;exitDx=0;exitDy=0;startArrow=classic;startFill=1;strokeWidth=2;flowAnimation=1;" edge="1" parent="1" source="jf5I7HkN9PbyXn5ZmQ9L-96" target="jf5I7HkN9PbyXn5ZmQ9L-103">
          <mxGeometry relative="1" as="geometry" />
        </mxCell>
        <mxCell id="jf5I7HkN9PbyXn5ZmQ9L-96" value="SPM" style="whiteSpace=wrap;html=1;aspect=fixed;fillColor=#008a00;fontColor=#ffffff;strokeColor=#005700;" vertex="1" parent="1">
          <mxGeometry x="620" y="819.75" width="80" height="80" as="geometry" />
        </mxCell>
        <mxCell id="jf5I7HkN9PbyXn5ZmQ9L-97" style="edgeStyle=orthogonalEdgeStyle;rounded=0;orthogonalLoop=1;jettySize=auto;html=1;fillColor=#fad9d5;strokeColor=#ae4132;startArrow=classic;startFill=1;strokeWidth=2;flowAnimation=1;" edge="1" parent="1" source="jf5I7HkN9PbyXn5ZmQ9L-98" target="jf5I7HkN9PbyXn5ZmQ9L-96">
          <mxGeometry relative="1" as="geometry" />
        </mxCell>
        <mxCell id="jf5I7HkN9PbyXn5ZmQ9L-98" value="Printer" style="whiteSpace=wrap;html=1;aspect=fixed;fillColor=#994C00;strokeColor=#A50040;fontColor=#ffffff;" vertex="1" parent="1">
          <mxGeometry x="760" y="777.5" width="80" height="80" as="geometry" />
        </mxCell>
        <mxCell id="jf5I7HkN9PbyXn5ZmQ9L-99" style="edgeStyle=orthogonalEdgeStyle;rounded=0;orthogonalLoop=1;jettySize=auto;html=1;entryX=0.5;entryY=0;entryDx=0;entryDy=0;fillColor=#b0e3e6;strokeColor=#0e8088;strokeWidth=2;flowAnimation=1;startArrow=classic;startFill=1;" edge="1" parent="1" source="jf5I7HkN9PbyXn5ZmQ9L-100" target="jf5I7HkN9PbyXn5ZmQ9L-96">
          <mxGeometry relative="1" as="geometry" />
        </mxCell>
        <mxCell id="jf5I7HkN9PbyXn5ZmQ9L-100" value="&lt;font color=&quot;#ffffff&quot;&gt;2D Scanner&lt;/font&gt;" style="whiteSpace=wrap;html=1;aspect=fixed;fillColor=#fa6800;strokeColor=#C73500;fontColor=#000000;" vertex="1" parent="1">
          <mxGeometry x="760" y="677.5" width="80" height="80" as="geometry" />
        </mxCell>
        <mxCell id="jf5I7HkN9PbyXn5ZmQ9L-101" style="edgeStyle=orthogonalEdgeStyle;rounded=0;orthogonalLoop=1;jettySize=auto;html=1;entryX=0.75;entryY=1;entryDx=0;entryDy=0;fillColor=#f8cecc;strokeColor=#b85450;startArrow=classic;startFill=1;strokeWidth=2;flowAnimation=1;" edge="1" parent="1" source="jf5I7HkN9PbyXn5ZmQ9L-102" target="jf5I7HkN9PbyXn5ZmQ9L-96">
          <mxGeometry relative="1" as="geometry" />
        </mxCell>
        <mxCell id="jf5I7HkN9PbyXn5ZmQ9L-102" value="RF-ID Reader" style="whiteSpace=wrap;html=1;aspect=fixed;fillColor=#FF3333;strokeColor=#006EAF;fontColor=#ffffff;" vertex="1" parent="1">
          <mxGeometry x="760" y="877.5" width="80" height="80" as="geometry" />
        </mxCell>
        <mxCell id="jf5I7HkN9PbyXn5ZmQ9L-103" value="Hybrid Card Reader" style="whiteSpace=wrap;html=1;aspect=fixed;fillColor=#0050ef;strokeColor=#001DBC;fontColor=#ffffff;" vertex="1" parent="1">
          <mxGeometry x="760" y="981.5" width="80" height="80" as="geometry" />
        </mxCell>
        <mxCell id="jf5I7HkN9PbyXn5ZmQ9L-104" style="edgeStyle=orthogonalEdgeStyle;rounded=0;orthogonalLoop=1;jettySize=auto;html=1;entryX=0.5;entryY=1;entryDx=0;entryDy=0;fillColor=#ffe6cc;strokeColor=#d79b00;startArrow=classic;startFill=1;strokeWidth=2;flowAnimation=1;" edge="1" parent="1" source="jf5I7HkN9PbyXn5ZmQ9L-105" target="jf5I7HkN9PbyXn5ZmQ9L-96">
          <mxGeometry relative="1" as="geometry" />
        </mxCell>
        <mxCell id="jf5I7HkN9PbyXn5ZmQ9L-105" value="Contactless Card Reader" style="whiteSpace=wrap;html=1;aspect=fixed;fillColor=#6a00ff;strokeColor=#3700CC;fontColor=#ffffff;" vertex="1" parent="1">
          <mxGeometry x="620" y="981.5" width="80" height="80" as="geometry" />
        </mxCell>
        <mxCell id="jf5I7HkN9PbyXn5ZmQ9L-106" style="edgeStyle=orthogonalEdgeStyle;rounded=0;orthogonalLoop=1;jettySize=auto;html=1;entryX=0.051;entryY=0.114;entryDx=0;entryDy=0;entryPerimeter=0;fillColor=none;strokeColor=#006EAF;strokeWidth=3;flowAnimation=1;startArrow=classic;startFill=1;" edge="1" parent="1" target="jf5I7HkN9PbyXn5ZmQ9L-96">
          <mxGeometry relative="1" as="geometry">
            <mxPoint x="1207.33" y="519.8333333333335" as="sourcePoint" />
          </mxGeometry>
        </mxCell>
        <mxCell id="jf5I7HkN9PbyXn5ZmQ9L-107" style="edgeStyle=orthogonalEdgeStyle;rounded=0;orthogonalLoop=1;jettySize=auto;html=1;exitX=0.965;exitY=0.379;exitDx=0;exitDy=0;exitPerimeter=0;fillColor=#1ba1e2;strokeColor=#006EAF;strokeWidth=3;flowAnimation=1;startArrow=classic;startFill=1;" edge="1" parent="1" source="jf5I7HkN9PbyXn5ZmQ9L-112">
          <mxGeometry relative="1" as="geometry">
            <mxPoint x="1495.75" y="520.5" as="targetPoint" />
          </mxGeometry>
        </mxCell>
        <mxCell id="jf5I7HkN9PbyXn5ZmQ9L-109" style="edgeStyle=orthogonalEdgeStyle;rounded=0;orthogonalLoop=1;jettySize=auto;html=1;entryX=0;entryY=0.75;entryDx=0;entryDy=0;strokeWidth=3;startArrow=classic;startFill=1;flowAnimation=1;shape=link;strokeColor=none;" edge="1" parent="1" source="jf5I7HkN9PbyXn5ZmQ9L-131" target="jf5I7HkN9PbyXn5ZmQ9L-115">
          <mxGeometry relative="1" as="geometry" />
        </mxCell>
        <mxCell id="jf5I7HkN9PbyXn5ZmQ9L-110" style="edgeStyle=orthogonalEdgeStyle;rounded=0;orthogonalLoop=1;jettySize=auto;html=1;entryX=0.5;entryY=0;entryDx=0;entryDy=0;startArrow=classic;startFill=1;strokeWidth=3;fillColor=none;gradientColor=#d5739d;strokeColor=#996185;flowAnimation=1;exitX=0.91;exitY=-0.013;exitDx=0;exitDy=0;exitPerimeter=0;" edge="1" parent="1" source="jf5I7HkN9PbyXn5ZmQ9L-112" target="jf5I7HkN9PbyXn5ZmQ9L-128">
          <mxGeometry relative="1" as="geometry">
            <mxPoint x="1365.75" y="457.5" as="sourcePoint" />
            <Array as="points">
              <mxPoint x="1342.75" y="427.5" />
              <mxPoint x="1800.75" y="427.5" />
            </Array>
          </mxGeometry>
        </mxCell>
        <mxCell id="jf5I7HkN9PbyXn5ZmQ9L-111" style="edgeStyle=orthogonalEdgeStyle;rounded=0;orthogonalLoop=1;jettySize=auto;html=1;entryX=0;entryY=0.25;entryDx=0;entryDy=0;startArrow=classic;startFill=1;fillColor=#e6d0de;gradientColor=#d5739d;strokeColor=#996185;strokeWidth=3;flowAnimation=1;" edge="1" parent="1" source="jf5I7HkN9PbyXn5ZmQ9L-112" target="jf5I7HkN9PbyXn5ZmQ9L-115">
          <mxGeometry relative="1" as="geometry">
            <Array as="points">
              <mxPoint x="1460.75" y="537.5" />
              <mxPoint x="1460.75" y="740.5" />
            </Array>
          </mxGeometry>
        </mxCell>
        <mxCell id="jf5I7HkN9PbyXn5ZmQ9L-112" value="POS/EPS" style="whiteSpace=wrap;html=1;aspect=fixed;fillColor=#647687;fontColor=#ffffff;strokeColor=#314354;" vertex="1" parent="1">
          <mxGeometry x="1215.75" y="467.5" width="140" height="140" as="geometry" />
        </mxCell>
        <mxCell id="jf5I7HkN9PbyXn5ZmQ9L-113" value="&lt;b style=&quot;font-size: 22px;&quot;&gt;&lt;font style=&quot;font-size: 22px;&quot; color=&quot;#ff6666&quot;&gt;Conexxus Protocol&lt;/font&gt;&lt;/b&gt;" style="text;html=1;align=center;verticalAlign=middle;whiteSpace=wrap;rounded=0;fontSize=22;" vertex="1" parent="1">
          <mxGeometry x="837.25" y="467.5" width="268.5" height="30" as="geometry" />
        </mxCell>
        <mxCell id="jf5I7HkN9PbyXn5ZmQ9L-114" value="Payment Host/Acquirer" style="whiteSpace=wrap;html=1;aspect=fixed;fillColor=#1ba1e2;fontColor=#ffffff;strokeColor=#006EAF;" vertex="1" parent="1">
          <mxGeometry x="1505.75" y="467.5" width="140" height="140" as="geometry" />
        </mxCell>
        <mxCell id="jf5I7HkN9PbyXn5ZmQ9L-115" value="External Loyalty Provider" style="whiteSpace=wrap;html=1;aspect=fixed;fillColor=#008a00;fontColor=#ffffff;strokeColor=#005700;" vertex="1" parent="1">
          <mxGeometry x="1515.75" y="707.5" width="130" height="130" as="geometry" />
        </mxCell>
        <mxCell id="jf5I7HkN9PbyXn5ZmQ9L-116" style="edgeStyle=orthogonalEdgeStyle;rounded=0;orthogonalLoop=1;jettySize=auto;html=1;startArrow=classic;startFill=1;fillColor=#d5e8d4;strokeColor=#82b366;flowAnimation=1;strokeWidth=3;gradientColor=#97d077;" edge="1" parent="1" source="jf5I7HkN9PbyXn5ZmQ9L-117" target="jf5I7HkN9PbyXn5ZmQ9L-112">
          <mxGeometry relative="1" as="geometry" />
        </mxCell>
        <mxCell id="jf5I7HkN9PbyXn5ZmQ9L-117" value="FCC" style="whiteSpace=wrap;html=1;aspect=fixed;fillColor=#76608a;fontColor=#ffffff;strokeColor=#432D57;" vertex="1" parent="1">
          <mxGeometry x="1215.75" y="727.5" width="140" height="140" as="geometry" />
        </mxCell>
        <mxCell id="jf5I7HkN9PbyXn5ZmQ9L-118" style="edgeStyle=orthogonalEdgeStyle;rounded=0;orthogonalLoop=1;jettySize=auto;html=1;entryX=1;entryY=0.5;entryDx=0;entryDy=0;exitX=0.5;exitY=1;exitDx=0;exitDy=0;startArrow=classic;startFill=1;flowAnimation=1;strokeWidth=3;fillColor=#dae8fc;gradientColor=#7ea6e0;strokeColor=#6c8ebf;" edge="1" parent="1" source="jf5I7HkN9PbyXn5ZmQ9L-119" target="jf5I7HkN9PbyXn5ZmQ9L-125">
          <mxGeometry relative="1" as="geometry" />
        </mxCell>
        <mxCell id="jf5I7HkN9PbyXn5ZmQ9L-119" value="&lt;font color=&quot;#ffffff&quot;&gt;CPMS&lt;/font&gt;" style="whiteSpace=wrap;html=1;aspect=fixed;fillColor=#fa6800;fontColor=#000000;strokeColor=#C73500;" vertex="1" parent="1">
          <mxGeometry x="1503.25" y="926.5" width="135" height="135" as="geometry" />
        </mxCell>
        <mxCell id="jf5I7HkN9PbyXn5ZmQ9L-120" style="edgeStyle=orthogonalEdgeStyle;rounded=0;orthogonalLoop=1;jettySize=auto;html=1;entryX=-0.001;entryY=0.63;entryDx=0;entryDy=0;entryPerimeter=0;exitX=0.5;exitY=1;exitDx=0;exitDy=0;fillColor=#fa6800;strokeColor=#C73500;strokeWidth=3;startArrow=classic;startFill=1;flowAnimation=1;" edge="1" parent="1" source="jf5I7HkN9PbyXn5ZmQ9L-117" target="jf5I7HkN9PbyXn5ZmQ9L-119">
          <mxGeometry relative="1" as="geometry" />
        </mxCell>
        <mxCell id="jf5I7HkN9PbyXn5ZmQ9L-121" value="&lt;b style=&quot;font-size: 22px;&quot;&gt;&lt;font style=&quot;font-size: 22px;&quot; color=&quot;#ff6666&quot;&gt;OCPI&lt;/font&gt;&lt;/b&gt;" style="text;html=1;align=center;verticalAlign=middle;whiteSpace=wrap;rounded=0;fontSize=22;" vertex="1" parent="1">
          <mxGeometry x="1265.75" y="1017.5" width="201" height="30" as="geometry" />
        </mxCell>
        <mxCell id="jf5I7HkN9PbyXn5ZmQ9L-122" value="" style="shape=image;verticalLabelPosition=bottom;labelBackgroundColor=default;verticalAlign=top;aspect=fixed;imageAspect=0;image=https://cdn3d.iconscout.com/3d/premium/thumb/sql-3d-icon-download-in-png-blend-fbx-gltf-file-formats--database-storage-data-cloud-servers-programming-pack-website-development-icons-8000482.png?f=webp;" vertex="1" parent="1">
          <mxGeometry x="1695.75" y="1067.5" width="96" height="96" as="geometry" />
        </mxCell>
        <mxCell id="jf5I7HkN9PbyXn5ZmQ9L-123" style="edgeStyle=orthogonalEdgeStyle;rounded=0;orthogonalLoop=1;jettySize=auto;html=1;exitX=1;exitY=0.5;exitDx=0;exitDy=0;fillColor=#fa6800;strokeColor=#C73500;strokeWidth=3;startArrow=classic;startFill=1;flowAnimation=1;" edge="1" parent="1" source="jf5I7HkN9PbyXn5ZmQ9L-119" target="jf5I7HkN9PbyXn5ZmQ9L-122">
          <mxGeometry relative="1" as="geometry">
            <mxPoint x="1295.75" y="877.5" as="sourcePoint" />
            <mxPoint x="1512.75" y="1021.5" as="targetPoint" />
          </mxGeometry>
        </mxCell>
        <mxCell id="jf5I7HkN9PbyXn5ZmQ9L-124" value="&lt;b style=&quot;font-size: 22px;&quot;&gt;&lt;font style=&quot;font-size: 22px;&quot; color=&quot;#ff6666&quot;&gt;CDR&lt;/font&gt;&lt;/b&gt;" style="text;html=1;align=center;verticalAlign=middle;whiteSpace=wrap;rounded=0;fontSize=22;" vertex="1" parent="1">
          <mxGeometry x="1705.75" y="1177.5" width="90" height="40" as="geometry" />
        </mxCell>
        <mxCell id="jf5I7HkN9PbyXn5ZmQ9L-125" value="EVCharger" style="whiteSpace=wrap;html=1;aspect=fixed;fillColor=#a0522d;fontColor=#ffffff;strokeColor=#6D1F00;" vertex="1" parent="1">
          <mxGeometry x="1235.75" y="1197.5" width="140" height="140" as="geometry" />
        </mxCell>
        <mxCell id="jf5I7HkN9PbyXn5ZmQ9L-126" value="&lt;b style=&quot;font-size: 22px;&quot;&gt;&lt;font style=&quot;font-size: 22px;&quot; color=&quot;#ff6666&quot;&gt;OCPP&lt;/font&gt;&lt;/b&gt;" style="text;html=1;align=center;verticalAlign=middle;whiteSpace=wrap;rounded=0;fontSize=22;" vertex="1" parent="1">
          <mxGeometry x="1375.75" y="1277.5" width="201" height="30" as="geometry" />
        </mxCell>
        <mxCell id="jf5I7HkN9PbyXn5ZmQ9L-128" value="Mobile Payment" style="whiteSpace=wrap;html=1;aspect=fixed;fillColor=#f8cecc;strokeColor=#b85450;gradientColor=#ea6b66;" vertex="1" parent="1">
          <mxGeometry x="1735.75" y="707.5" width="130" height="130" as="geometry" />
        </mxCell>
        <mxCell id="jf5I7HkN9PbyXn5ZmQ9L-129" value="&lt;b style=&quot;font-size: 22px;&quot;&gt;&lt;font style=&quot;font-size: 22px;&quot; color=&quot;#ff6666&quot;&gt;Conexxus Protocol&lt;/font&gt;&lt;/b&gt;" style="text;html=1;align=center;verticalAlign=middle;whiteSpace=wrap;rounded=0;rotation=-90;fontSize=22;" vertex="1" parent="1">
          <mxGeometry x="1705.75" y="530.5" width="251" height="30" as="geometry" />
        </mxCell>
        <mxCell id="jf5I7HkN9PbyXn5ZmQ9L-130" value="" style="edgeStyle=orthogonalEdgeStyle;rounded=0;orthogonalLoop=1;jettySize=auto;html=1;entryX=0;entryY=0.75;entryDx=0;entryDy=0;strokeWidth=3;startArrow=classic;startFill=1;flowAnimation=1;shape=link;strokeColor=none;" edge="1" parent="1" source="jf5I7HkN9PbyXn5ZmQ9L-112" target="jf5I7HkN9PbyXn5ZmQ9L-131">
          <mxGeometry relative="1" as="geometry">
            <mxPoint x="1355.75" y="537.5" as="sourcePoint" />
            <mxPoint x="1515.75" y="805.5" as="targetPoint" />
          </mxGeometry>
        </mxCell>
        <mxCell id="jf5I7HkN9PbyXn5ZmQ9L-131" value="&lt;b style=&quot;font-size: 22px;&quot;&gt;&lt;font style=&quot;font-size: 22px;&quot; color=&quot;#ff6666&quot;&gt;Conexxus Protocol&lt;/font&gt;&lt;/b&gt;" style="text;html=1;align=center;verticalAlign=middle;whiteSpace=wrap;rounded=0;rotation=-90;fontSize=22;" vertex="1" parent="1">
          <mxGeometry x="1301.25" y="630.5" width="280" height="30" as="geometry" />
        </mxCell>
        <mxCell id="jf5I7HkN9PbyXn5ZmQ9L-134" value="Pump Board" style="swimlane;whiteSpace=wrap;html=1;fillColor=#f8cecc;gradientColor=#ea6b66;strokeColor=#b85450;" vertex="1" parent="1">
          <mxGeometry x="530" y="645.5" width="431.25" height="584.5" as="geometry" />
        </mxCell>
        <mxCell id="jf5I7HkN9PbyXn5ZmQ9L-135" style="edgeStyle=orthogonalEdgeStyle;rounded=0;orthogonalLoop=1;jettySize=auto;html=1;entryX=0.5;entryY=0;entryDx=0;entryDy=0;startArrow=classic;startFill=1;strokeWidth=2;flowAnimation=1;" edge="1" parent="jf5I7HkN9PbyXn5ZmQ9L-134" target="jf5I7HkN9PbyXn5ZmQ9L-137">
          <mxGeometry relative="1" as="geometry">
            <mxPoint x="218.7692307692305" y="140.00000000000045" as="sourcePoint" />
          </mxGeometry>
        </mxCell>
        <mxCell id="jf5I7HkN9PbyXn5ZmQ9L-141" value="&lt;font color=&quot;#ffffff&quot; style=&quot;font-size: 14px;&quot;&gt;Forecourt Controller&lt;/font&gt;" style="whiteSpace=wrap;html=1;aspect=fixed;fillColor=#dae8fc;gradientColor=#7ea6e0;strokeColor=#6c8ebf;" vertex="1" parent="jf5I7HkN9PbyXn5ZmQ9L-134">
          <mxGeometry x="30" y="474.5" width="67" height="67" as="geometry" />
        </mxCell>
        <mxCell id="jf5I7HkN9PbyXn5ZmQ9L-142" style="edgeStyle=orthogonalEdgeStyle;rounded=0;orthogonalLoop=1;jettySize=auto;html=1;entryX=0.5;entryY=0;entryDx=0;entryDy=0;startArrow=classic;startFill=1;strokeWidth=3;fillColor=#f8cecc;gradientColor=#ea6b66;strokeColor=#b85450;flowAnimation=1;" edge="1" parent="1" target="jf5I7HkN9PbyXn5ZmQ9L-141">
          <mxGeometry relative="1" as="geometry">
            <mxPoint x="630" y="865" as="sourcePoint" />
          </mxGeometry>
        </mxCell>
        <mxCell id="jf5I7HkN9PbyXn5ZmQ9L-207" style="edgeStyle=orthogonalEdgeStyle;rounded=0;orthogonalLoop=1;jettySize=auto;html=1;entryX=0;entryY=0.5;entryDx=0;entryDy=0;startArrow=classicThin;startFill=1;fillColor=#fff2cc;gradientColor=#ffd966;strokeColor=#d6b656;strokeWidth=3;flowAnimation=1;" edge="1" parent="1" source="jf5I7HkN9PbyXn5ZmQ9L-208" target="jf5I7HkN9PbyXn5ZmQ9L-221">
          <mxGeometry relative="1" as="geometry" />
        </mxCell>
        <mxCell id="jf5I7HkN9PbyXn5ZmQ9L-208" value="" style="whiteSpace=wrap;html=1;aspect=fixed;fillColor=#d5e8d4;strokeColor=#82b366;" vertex="1" parent="1">
          <mxGeometry x="-245" y="477.5" width="340" height="340" as="geometry" />
        </mxCell>
        <mxCell id="jf5I7HkN9PbyXn5ZmQ9L-209" value="&lt;b&gt;APPLE DEVICE&lt;/b&gt;" style="html=1;verticalLabelPosition=bottom;align=center;labelBackgroundColor=#ffffff;verticalAlign=top;strokeWidth=2;strokeColor=#0080F0;shadow=0;dashed=0;shape=mxgraph.ios7.icons.smartphone;" vertex="1" parent="1">
          <mxGeometry x="-240" y="877.5" width="335" height="460" as="geometry" />
        </mxCell>
        <mxCell id="jf5I7HkN9PbyXn5ZmQ9L-210" value="IOS" style="rounded=0;whiteSpace=wrap;html=1;fillColor=#6d8764;fontColor=#ffffff;strokeColor=#3A5431;" vertex="1" parent="1">
          <mxGeometry x="-240" y="1207.5" width="145" height="60" as="geometry" />
        </mxCell>
        <mxCell id="jf5I7HkN9PbyXn5ZmQ9L-211" style="edgeStyle=orthogonalEdgeStyle;rounded=0;orthogonalLoop=1;jettySize=auto;html=1;startArrow=classic;startFill=1;flowAnimation=1;fillColor=#dae8fc;strokeColor=#6c8ebf;strokeWidth=3;" edge="1" parent="1" source="jf5I7HkN9PbyXn5ZmQ9L-212" target="jf5I7HkN9PbyXn5ZmQ9L-210">
          <mxGeometry relative="1" as="geometry" />
        </mxCell>
        <mxCell id="jf5I7HkN9PbyXn5ZmQ9L-232" style="edgeStyle=orthogonalEdgeStyle;rounded=0;orthogonalLoop=1;jettySize=auto;html=1;entryX=0;entryY=0.5;entryDx=0;entryDy=0;startArrow=classic;startFill=1;strokeWidth=3;fillColor=#f8cecc;strokeColor=#b85450;flowAnimation=1;exitX=1;exitY=0.75;exitDx=0;exitDy=0;" edge="1" parent="1" source="jf5I7HkN9PbyXn5ZmQ9L-212" target="jf5I7HkN9PbyXn5ZmQ9L-105">
          <mxGeometry relative="1" as="geometry" />
        </mxCell>
        <mxCell id="jf5I7HkN9PbyXn5ZmQ9L-237" style="edgeStyle=orthogonalEdgeStyle;rounded=0;orthogonalLoop=1;jettySize=auto;html=1;entryX=0.5;entryY=0;entryDx=0;entryDy=0;flowAnimation=1;fillColor=#008a00;strokeColor=#005700;strokeWidth=3;startArrow=classic;startFill=1;" edge="1" parent="1" source="jf5I7HkN9PbyXn5ZmQ9L-212" target="jf5I7HkN9PbyXn5ZmQ9L-236">
          <mxGeometry relative="1" as="geometry">
            <Array as="points">
              <mxPoint x="35" y="1410" />
              <mxPoint x="-510" y="1410" />
            </Array>
          </mxGeometry>
        </mxCell>
        <mxCell id="jf5I7HkN9PbyXn5ZmQ9L-212" value="&lt;font color=&quot;#ffffff&quot;&gt;SE&lt;/font&gt;" style="rounded=0;whiteSpace=wrap;html=1;fillColor=#fa6800;fontColor=#000000;strokeColor=#C73500;" vertex="1" parent="1">
          <mxGeometry x="-25" y="1207.5" width="120" height="60" as="geometry" />
        </mxCell>
        <mxCell id="jf5I7HkN9PbyXn5ZmQ9L-213" style="edgeStyle=orthogonalEdgeStyle;rounded=0;orthogonalLoop=1;jettySize=auto;html=1;entryX=0.5;entryY=0;entryDx=0;entryDy=0;flowAnimation=1;fillColor=#dae8fc;strokeColor=#6c8ebf;strokeWidth=3;" edge="1" parent="1" source="jf5I7HkN9PbyXn5ZmQ9L-214" target="jf5I7HkN9PbyXn5ZmQ9L-212">
          <mxGeometry relative="1" as="geometry" />
        </mxCell>
        <mxCell id="jf5I7HkN9PbyXn5ZmQ9L-214" value="SDK" style="rounded=0;whiteSpace=wrap;html=1;fillColor=#1ba1e2;fontColor=#ffffff;strokeColor=#006EAF;" vertex="1" parent="1">
          <mxGeometry x="-240" y="1117.5" width="335" height="50" as="geometry" />
        </mxCell>
        <mxCell id="jf5I7HkN9PbyXn5ZmQ9L-215" style="edgeStyle=orthogonalEdgeStyle;rounded=0;orthogonalLoop=1;jettySize=auto;html=1;exitX=0.5;exitY=1;exitDx=0;exitDy=0;startArrow=classic;startFill=1;flowAnimation=1;strokeWidth=3;fillColor=#dae8fc;strokeColor=#6c8ebf;" edge="1" parent="1" source="jf5I7HkN9PbyXn5ZmQ9L-214" target="jf5I7HkN9PbyXn5ZmQ9L-210">
          <mxGeometry relative="1" as="geometry">
            <mxPoint x="-62" y="1187.5" as="sourcePoint" />
            <mxPoint x="45" y="1217.5" as="targetPoint" />
          </mxGeometry>
        </mxCell>
        <mxCell id="jf5I7HkN9PbyXn5ZmQ9L-216" style="edgeStyle=orthogonalEdgeStyle;rounded=0;orthogonalLoop=1;jettySize=auto;html=1;entryX=0.5;entryY=0;entryDx=0;entryDy=0;startArrow=classicThin;startFill=1;flowAnimation=1;fillColor=#dae8fc;strokeColor=#6c8ebf;strokeWidth=3;" edge="1" parent="1" source="jf5I7HkN9PbyXn5ZmQ9L-218" target="jf5I7HkN9PbyXn5ZmQ9L-214">
          <mxGeometry relative="1" as="geometry" />
        </mxCell>
        <mxCell id="jf5I7HkN9PbyXn5ZmQ9L-217" style="edgeStyle=orthogonalEdgeStyle;rounded=0;orthogonalLoop=1;jettySize=auto;html=1;entryX=0.5;entryY=1;entryDx=0;entryDy=0;startArrow=classicThin;startFill=1;flowAnimation=1;fillColor=#d80073;strokeColor=#A50040;strokeWidth=3;exitX=0.5;exitY=0.283;exitDx=0;exitDy=0;exitPerimeter=0;" edge="1" parent="1" source="jf5I7HkN9PbyXn5ZmQ9L-209" target="jf5I7HkN9PbyXn5ZmQ9L-223">
          <mxGeometry relative="1" as="geometry">
            <mxPoint x="20" y="1007.5" as="sourcePoint" />
          </mxGeometry>
        </mxCell>
        <mxCell id="jf5I7HkN9PbyXn5ZmQ9L-218" value="Mobile Application" style="rounded=0;whiteSpace=wrap;html=1;fillColor=#d80073;fontColor=#ffffff;strokeColor=#A50040;" vertex="1" parent="1">
          <mxGeometry x="-240" y="1007.5" width="335" height="60" as="geometry" />
        </mxCell>
        <mxCell id="jf5I7HkN9PbyXn5ZmQ9L-240" style="edgeStyle=orthogonalEdgeStyle;rounded=0;orthogonalLoop=1;jettySize=auto;html=1;entryX=0.5;entryY=0;entryDx=0;entryDy=0;flowAnimation=1;strokeWidth=2;startArrow=classic;startFill=1;" edge="1" parent="1" source="jf5I7HkN9PbyXn5ZmQ9L-219" target="jf5I7HkN9PbyXn5ZmQ9L-238">
          <mxGeometry relative="1" as="geometry">
            <Array as="points">
              <mxPoint x="-160" y="860" />
              <mxPoint x="210" y="860" />
            </Array>
          </mxGeometry>
        </mxCell>
        <mxCell id="jf5I7HkN9PbyXn5ZmQ9L-219" value="EWS&amp;nbsp;&lt;div&gt;Trusted Service Manager&lt;/div&gt;" style="whiteSpace=wrap;html=1;aspect=fixed;fillColor=#60a917;strokeColor=#2D7600;fontColor=#ffffff;" vertex="1" parent="1">
          <mxGeometry x="-215" y="687.5" width="110" height="110" as="geometry" />
        </mxCell>
        <mxCell id="jf5I7HkN9PbyXn5ZmQ9L-221" value="Issuing Banks&amp;nbsp;" style="whiteSpace=wrap;html=1;aspect=fixed;fillColor=#e51400;strokeColor=#B20000;fontColor=#ffffff;" vertex="1" parent="1">
          <mxGeometry x="185" y="588.75" width="120" height="120" as="geometry" />
        </mxCell>
        <mxCell id="jf5I7HkN9PbyXn5ZmQ9L-222" style="edgeStyle=orthogonalEdgeStyle;rounded=0;orthogonalLoop=1;jettySize=auto;html=1;startArrow=classicThin;startFill=1;strokeWidth=3;flowAnimation=1;fillColor=#d5e8d4;strokeColor=#82b366;gradientColor=#97d077;" edge="1" parent="1" source="jf5I7HkN9PbyXn5ZmQ9L-223" target="jf5I7HkN9PbyXn5ZmQ9L-219">
          <mxGeometry relative="1" as="geometry" />
        </mxCell>
        <mxCell id="jf5I7HkN9PbyXn5ZmQ9L-223" value="&lt;font color=&quot;#ffffff&quot;&gt;Wallet Management&lt;/font&gt;" style="whiteSpace=wrap;html=1;aspect=fixed;fillColor=#647687;strokeColor=#314354;fontColor=#ffffff;" vertex="1" parent="1">
          <mxGeometry x="-35" y="687.5" width="110" height="110" as="geometry" />
        </mxCell>
        <mxCell id="jf5I7HkN9PbyXn5ZmQ9L-224" style="edgeStyle=orthogonalEdgeStyle;rounded=0;orthogonalLoop=1;jettySize=auto;html=1;entryX=0.5;entryY=0;entryDx=0;entryDy=0;startArrow=classic;startFill=1;fillColor=#d5e8d4;gradientColor=#97d077;strokeColor=#82b366;strokeWidth=3;flowAnimation=1;" edge="1" parent="1" source="jf5I7HkN9PbyXn5ZmQ9L-225" target="jf5I7HkN9PbyXn5ZmQ9L-223">
          <mxGeometry relative="1" as="geometry" />
        </mxCell>
        <mxCell id="jf5I7HkN9PbyXn5ZmQ9L-225" value="&lt;font color=&quot;#ffffff&quot;&gt;Consumer Wallets &amp;amp;&amp;nbsp;&lt;/font&gt;&lt;div&gt;&lt;font color=&quot;#ffffff&quot;&gt;Profiles&lt;/font&gt;&lt;/div&gt;" style="whiteSpace=wrap;html=1;aspect=fixed;fillColor=#6d8764;strokeColor=#3A5431;fontColor=#ffffff;" vertex="1" parent="1">
          <mxGeometry x="-35" y="527.5" width="110" height="110" as="geometry" />
        </mxCell>
        <mxCell id="jf5I7HkN9PbyXn5ZmQ9L-226" value="&lt;font color=&quot;#ffffff&quot;&gt;Fraud Detection&lt;/font&gt;" style="whiteSpace=wrap;html=1;aspect=fixed;fillColor=#1ba1e2;strokeColor=#006EAF;fontColor=#ffffff;" vertex="1" parent="1">
          <mxGeometry x="-215" y="527.5" width="110" height="110" as="geometry" />
        </mxCell>
        <mxCell id="jf5I7HkN9PbyXn5ZmQ9L-227" style="edgeStyle=orthogonalEdgeStyle;rounded=0;orthogonalLoop=1;jettySize=auto;html=1;entryX=-0.009;entryY=0.15;entryDx=0;entryDy=0;entryPerimeter=0;startArrow=classicThin;startFill=1;strokeWidth=3;fillColor=#d5e8d4;gradientColor=#97d077;strokeColor=#82b366;flowAnimation=1;" edge="1" parent="1" source="jf5I7HkN9PbyXn5ZmQ9L-226" target="jf5I7HkN9PbyXn5ZmQ9L-223">
          <mxGeometry relative="1" as="geometry" />
        </mxCell>
        <mxCell id="jf5I7HkN9PbyXn5ZmQ9L-228" value="EWS Hosted Services" style="text;html=1;align=center;verticalAlign=middle;whiteSpace=wrap;rounded=0;" vertex="1" parent="1">
          <mxGeometry x="-125" y="487.5" width="135" height="30" as="geometry" />
        </mxCell>
        <mxCell id="jf5I7HkN9PbyXn5ZmQ9L-230" style="edgeStyle=orthogonalEdgeStyle;rounded=0;orthogonalLoop=1;jettySize=auto;html=1;entryX=1;entryY=0.75;entryDx=0;entryDy=0;startArrow=classicThin;startFill=1;fillColor=#d5e8d4;gradientColor=#97d077;strokeColor=#82b366;flowAnimation=1;strokeWidth=3;jumpStyle=arc;" edge="1" parent="1" source="jf5I7HkN9PbyXn5ZmQ9L-231" target="jf5I7HkN9PbyXn5ZmQ9L-219">
          <mxGeometry relative="1" as="geometry">
            <Array as="points">
              <mxPoint x="-85" y="668.5" />
              <mxPoint x="-85" y="770.5" />
            </Array>
          </mxGeometry>
        </mxCell>
        <mxCell id="jf5I7HkN9PbyXn5ZmQ9L-231" value="HSM" style="rounded=1;whiteSpace=wrap;html=1;fillColor=#f8cecc;strokeColor=#b85450;" vertex="1" parent="1">
          <mxGeometry x="-195" y="657.5" width="55" height="21" as="geometry" />
        </mxCell>
        <mxCell id="jf5I7HkN9PbyXn5ZmQ9L-233" value="&lt;font style=&quot;font-size: 18px;&quot;&gt;EWS BACKEND&lt;/font&gt;" style="swimlane;whiteSpace=wrap;html=1;fillColor=#1ba1e2;strokeColor=#006EAF;fontColor=#ffffff;" vertex="1" parent="1">
          <mxGeometry x="-535" y="423" width="865" height="427" as="geometry" />
        </mxCell>
        <mxCell id="jf5I7HkN9PbyXn5ZmQ9L-234" style="edgeStyle=orthogonalEdgeStyle;rounded=0;orthogonalLoop=1;jettySize=auto;html=1;entryX=0.5;entryY=0;entryDx=0;entryDy=0;startArrow=classic;startFill=1;strokeWidth=2;flowAnimation=1;" edge="1" parent="jf5I7HkN9PbyXn5ZmQ9L-233">
          <mxGeometry relative="1" as="geometry">
            <mxPoint x="218.7692307692305" y="140.00000000000045" as="sourcePoint" />
          </mxGeometry>
        </mxCell>
        <mxCell id="jf5I7HkN9PbyXn5ZmQ9L-298" style="edgeStyle=orthogonalEdgeStyle;rounded=0;orthogonalLoop=1;jettySize=auto;html=1;startArrow=classic;startFill=1;strokeWidth=3;fillColor=#f0a30a;strokeColor=#BD7000;flowAnimation=1;" edge="1" parent="jf5I7HkN9PbyXn5ZmQ9L-233" source="jf5I7HkN9PbyXn5ZmQ9L-295">
          <mxGeometry relative="1" as="geometry">
            <mxPoint x="288.3333333333335" y="210" as="targetPoint" />
          </mxGeometry>
        </mxCell>
        <mxCell id="jf5I7HkN9PbyXn5ZmQ9L-295" value="Transit Operators" style="whiteSpace=wrap;html=1;aspect=fixed;fillColor=#0050ef;strokeColor=#001DBC;fontColor=#ffffff;" vertex="1" parent="jf5I7HkN9PbyXn5ZmQ9L-233">
          <mxGeometry x="105" y="160" width="100" height="100" as="geometry" />
        </mxCell>
        <mxCell id="jf5I7HkN9PbyXn5ZmQ9L-296" value="Universites" style="whiteSpace=wrap;html=1;aspect=fixed;fillColor=#fa6800;strokeColor=#C73500;fontColor=#000000;" vertex="1" parent="jf5I7HkN9PbyXn5ZmQ9L-233">
          <mxGeometry x="4" y="301" width="93" height="93" as="geometry" />
        </mxCell>
        <mxCell id="jf5I7HkN9PbyXn5ZmQ9L-297" value="Theme Parks" style="whiteSpace=wrap;html=1;aspect=fixed;fillColor=#d80073;strokeColor=#A50040;fontColor=#ffffff;" vertex="1" parent="jf5I7HkN9PbyXn5ZmQ9L-233">
          <mxGeometry x="125" y="301" width="93" height="93" as="geometry" />
        </mxCell>
        <mxCell id="jf5I7HkN9PbyXn5ZmQ9L-302" value="Super Apps" style="whiteSpace=wrap;html=1;aspect=fixed;fillColor=#60a917;strokeColor=#2D7600;fontColor=#ffffff;" vertex="1" parent="jf5I7HkN9PbyXn5ZmQ9L-233">
          <mxGeometry x="108.5" y="26" width="93" height="93" as="geometry" />
        </mxCell>
        <mxCell id="jf5I7HkN9PbyXn5ZmQ9L-236" value="Bus Validator" style="whiteSpace=wrap;html=1;aspect=fixed;fillColor=#60a917;fontColor=#ffffff;strokeColor=#2D7600;" vertex="1" parent="1">
          <mxGeometry x="-550" y="1580" width="80" height="80" as="geometry" />
        </mxCell>
        <mxCell id="jf5I7HkN9PbyXn5ZmQ9L-239" style="edgeStyle=orthogonalEdgeStyle;rounded=0;orthogonalLoop=1;jettySize=auto;html=1;entryX=1;entryY=0.5;entryDx=0;entryDy=0;strokeColor=#CC0066;strokeWidth=3;startArrow=classic;startFill=1;flowAnimation=1;" edge="1" parent="1" source="jf5I7HkN9PbyXn5ZmQ9L-238" target="jf5I7HkN9PbyXn5ZmQ9L-212">
          <mxGeometry relative="1" as="geometry">
            <Array as="points">
              <mxPoint x="140" y="1037" />
              <mxPoint x="140" y="1237" />
            </Array>
          </mxGeometry>
        </mxCell>
        <mxCell id="jf5I7HkN9PbyXn5ZmQ9L-238" value="&lt;font color=&quot;#ffffff&quot;&gt;Apple TSM&lt;/font&gt;" style="whiteSpace=wrap;html=1;aspect=fixed;fillColor=#fa6800;fontColor=#000000;strokeColor=#C73500;" vertex="1" parent="1">
          <mxGeometry x="170" y="997.5" width="80" height="80" as="geometry" />
        </mxCell>
        <mxCell id="jf5I7HkN9PbyXn5ZmQ9L-241" value="&lt;b&gt;PAYMENT RAILS&lt;/b&gt;" style="text;html=1;align=center;verticalAlign=middle;whiteSpace=wrap;rounded=0;" vertex="1" parent="1">
          <mxGeometry x="146" y="1262" width="220" height="30" as="geometry" />
        </mxCell>
        <mxCell id="jf5I7HkN9PbyXn5ZmQ9L-263" style="edgeStyle=orthogonalEdgeStyle;rounded=0;orthogonalLoop=1;jettySize=auto;html=1;entryX=0.5;entryY=1;entryDx=0;entryDy=0;startArrow=classic;startFill=1;flowAnimation=1;strokeWidth=3;" edge="1" parent="1" source="jf5I7HkN9PbyXn5ZmQ9L-262" target="jf5I7HkN9PbyXn5ZmQ9L-236">
          <mxGeometry relative="1" as="geometry" />
        </mxCell>
        <mxCell id="jf5I7HkN9PbyXn5ZmQ9L-265" style="edgeStyle=orthogonalEdgeStyle;rounded=0;orthogonalLoop=1;jettySize=auto;html=1;entryX=0;entryY=0.5;entryDx=0;entryDy=0;" edge="1" parent="1" source="jf5I7HkN9PbyXn5ZmQ9L-262" target="jf5I7HkN9PbyXn5ZmQ9L-264">
          <mxGeometry relative="1" as="geometry" />
        </mxCell>
        <mxCell id="jf5I7HkN9PbyXn5ZmQ9L-262" value="TMS AFC" style="whiteSpace=wrap;html=1;aspect=fixed;fillColor=#fa6800;fontColor=#000000;strokeColor=#C73500;" vertex="1" parent="1">
          <mxGeometry x="-550" y="1765" width="80" height="80" as="geometry" />
        </mxCell>
        <mxCell id="jf5I7HkN9PbyXn5ZmQ9L-264" value="AFC Card Management System" style="whiteSpace=wrap;html=1;aspect=fixed;fillColor=#6d8764;fontColor=#ffffff;strokeColor=#3A5431;" vertex="1" parent="1">
          <mxGeometry x="-368" y="1765" width="80" height="80" as="geometry" />
        </mxCell>
        <mxCell id="jf5I7HkN9PbyXn5ZmQ9L-269" style="edgeStyle=orthogonalEdgeStyle;rounded=0;orthogonalLoop=1;jettySize=auto;html=1;flowAnimation=1;strokeWidth=3;" edge="1" parent="1" source="jf5I7HkN9PbyXn5ZmQ9L-266">
          <mxGeometry relative="1" as="geometry">
            <mxPoint x="-513.333333333333" y="1848.3333333333335" as="targetPoint" />
          </mxGeometry>
        </mxCell>
        <mxCell id="jf5I7HkN9PbyXn5ZmQ9L-266" value="Key Management" style="whiteSpace=wrap;html=1;aspect=fixed;fillColor=#d80073;fontColor=#ffffff;strokeColor=#A50040;" vertex="1" parent="1">
          <mxGeometry x="-365" y="1937" width="80" height="80" as="geometry" />
        </mxCell>
        <mxCell id="jf5I7HkN9PbyXn5ZmQ9L-267" value="HSM" style="shape=process;whiteSpace=wrap;html=1;backgroundOutline=1;fillColor=#d80073;fontColor=#ffffff;strokeColor=#A50040;" vertex="1" parent="1">
          <mxGeometry x="-195" y="1950" width="120" height="60" as="geometry" />
        </mxCell>
        <mxCell id="jf5I7HkN9PbyXn5ZmQ9L-268" style="edgeStyle=orthogonalEdgeStyle;rounded=0;orthogonalLoop=1;jettySize=auto;html=1;entryX=0.097;entryY=0.467;entryDx=0;entryDy=0;entryPerimeter=0;flowAnimation=1;strokeWidth=2;startArrow=classic;startFill=1;" edge="1" parent="1" source="jf5I7HkN9PbyXn5ZmQ9L-266" target="jf5I7HkN9PbyXn5ZmQ9L-267">
          <mxGeometry relative="1" as="geometry" />
        </mxCell>
        <mxCell id="jf5I7HkN9PbyXn5ZmQ9L-271" style="edgeStyle=orthogonalEdgeStyle;rounded=0;orthogonalLoop=1;jettySize=auto;html=1;entryX=0.25;entryY=1;entryDx=0;entryDy=0;startArrow=classic;startFill=1;flowAnimation=1;strokeWidth=3;" edge="1" parent="1" source="jf5I7HkN9PbyXn5ZmQ9L-270" target="jf5I7HkN9PbyXn5ZmQ9L-264">
          <mxGeometry relative="1" as="geometry">
            <Array as="points">
              <mxPoint x="-683" y="1898" />
              <mxPoint x="-348" y="1898" />
            </Array>
          </mxGeometry>
        </mxCell>
        <mxCell id="jf5I7HkN9PbyXn5ZmQ9L-270" value="AFC Ticket Vending MAchines" style="whiteSpace=wrap;html=1;aspect=fixed;fillColor=#1ba1e2;fontColor=#ffffff;strokeColor=#006EAF;" vertex="1" parent="1">
          <mxGeometry x="-723" y="1773" width="80" height="80" as="geometry" />
        </mxCell>
        <mxCell id="jf5I7HkN9PbyXn5ZmQ9L-273" value="&lt;h1 style=&quot;margin-top: 0px;&quot;&gt;Public Transit/City Card&lt;/h1&gt;" style="text;html=1;whiteSpace=wrap;overflow=hidden;rounded=0;" vertex="1" parent="1">
          <mxGeometry x="-804" y="1429" width="282" height="51" as="geometry" />
        </mxCell>
        <mxCell id="jf5I7HkN9PbyXn5ZmQ9L-283" value="&lt;b&gt;NFC&lt;/b&gt;" style="text;html=1;align=center;verticalAlign=middle;whiteSpace=wrap;rounded=0;" vertex="1" parent="1">
          <mxGeometry x="-300" y="1375" width="60" height="30" as="geometry" />
        </mxCell>
        <mxCell id="jf5I7HkN9PbyXn5ZmQ9L-292" value="PAY@PUMP , EV CHARGING ,CONVENIENT STORES , LOYALTY" style="swimlane;whiteSpace=wrap;html=1;fillColor=#d80073;strokeColor=#A50040;fontColor=#ffffff;" vertex="1" parent="1">
          <mxGeometry x="508" y="380" width="1435" height="987" as="geometry" />
        </mxCell>
        <mxCell id="jf5I7HkN9PbyXn5ZmQ9L-293" style="edgeStyle=orthogonalEdgeStyle;rounded=0;orthogonalLoop=1;jettySize=auto;html=1;entryX=0.5;entryY=0;entryDx=0;entryDy=0;startArrow=classic;startFill=1;strokeWidth=2;flowAnimation=1;" edge="1" parent="jf5I7HkN9PbyXn5ZmQ9L-292">
          <mxGeometry relative="1" as="geometry">
            <mxPoint x="218.7692307692305" y="140.00000000000045" as="sourcePoint" />
          </mxGeometry>
        </mxCell>
        <mxCell id="jf5I7HkN9PbyXn5ZmQ9L-301" style="edgeStyle=orthogonalEdgeStyle;rounded=0;orthogonalLoop=1;jettySize=auto;html=1;entryX=0.5;entryY=1;entryDx=0;entryDy=0;" edge="1" parent="1" source="jf5I7HkN9PbyXn5ZmQ9L-300" target="jf5I7HkN9PbyXn5ZmQ9L-266">
          <mxGeometry relative="1" as="geometry" />
        </mxCell>
        <mxCell id="jf5I7HkN9PbyXn5ZmQ9L-300" value="EWS TSM GATE" style="whiteSpace=wrap;html=1;aspect=fixed;fillColor=#0050ef;fontColor=#ffffff;strokeColor=#001DBC;" vertex="1" parent="1">
          <mxGeometry x="-750" y="2007" width="80" height="80" as="geometry" />
        </mxCell>
        <mxCell id="jf5I7HkN9PbyXn5ZmQ9L-299" style="edgeStyle=orthogonalEdgeStyle;rounded=0;orthogonalLoop=1;jettySize=auto;html=1;entryX=0;entryY=0.75;entryDx=0;entryDy=0;startArrow=classicThin;startFill=1;strokeWidth=4;fillColor=#e51400;strokeColor=#B20000;flowAnimation=1;" edge="1" parent="1" source="jf5I7HkN9PbyXn5ZmQ9L-295" target="jf5I7HkN9PbyXn5ZmQ9L-300">
          <mxGeometry relative="1" as="geometry">
            <mxPoint x="-953.333333333333" y="1880.0000000000002" as="targetPoint" />
            <Array as="points">
              <mxPoint x="-1047" y="633" />
              <mxPoint x="-1047" y="2067" />
            </Array>
          </mxGeometry>
        </mxCell>
      </root>
    </mxGraphModel>
  </diagram>
</mxfile>
